<svg width="16" height="22" viewBox="0 0 16 22" fill="none" xmlns="http://www.w3.org/2000/svg">
<path d="M15.618 9.00628C15.9305 6.88128 14.318 5.73128 12.093 4.96877L12.818 2.08127L11.068 1.64377L10.368 4.45627C9.90548 4.34378 9.43048 4.23128 8.95548 4.13128L9.65548 1.30627L7.90548 0.868774L7.19298 3.74377C6.80548 3.65627 6.43048 3.56877 6.06798 3.48127V3.46877L3.64298 2.86877L3.18048 4.74377C3.18048 4.74377 4.48048 5.04377 4.45548 5.05627C5.16798 5.23127 5.29298 5.70627 5.26798 6.08127L4.44298 9.36878C4.49298 9.38128 4.55548 9.39377 4.63048 9.43128C4.56798 9.41878 4.50548 9.40628 4.44298 9.38128L3.29298 13.9813C3.20548 14.1938 2.98048 14.5188 2.49298 14.3938C2.50548 14.4188 1.21798 14.0813 1.21798 14.0813L0.342981 16.0938L2.63048 16.6688C3.05548 16.7813 3.46798 16.8813 3.88048 16.9938L3.15548 19.9063L4.90548 20.3438L5.63048 17.4563C6.10548 17.5813 6.58048 17.7063 7.03048 17.8188L6.31798 20.6938L8.06798 21.1313L8.79298 18.2188C11.793 18.7813 14.043 18.5563 14.9805 15.8438C15.743 13.6688 14.943 12.4063 13.368 11.5813C14.5305 11.3188 15.393 10.5563 15.618 9.00628ZM11.6055 14.6313C11.068 16.8063 7.39298 15.6313 6.20548 15.3313L7.16798 11.4688C8.35548 11.7688 12.1805 12.3563 11.6055 14.6313ZM12.1555 8.96878C11.6555 10.9563 8.60548 9.94378 7.61798 9.69378L8.49298 6.19378C9.48048 6.44378 12.668 6.90628 12.1555 8.96878Z" fill="white"/>
</svg>
