<svg width="22" height="21" viewBox="0 0 22 21" fill="none" xmlns="http://www.w3.org/2000/svg">
<path d="M3.10766 0.25C2.41607 0.25 1.7528 0.524735 1.26377 1.01377C0.774735 1.5028 0.5 2.16607 0.5 2.85766L0.5 19.5376C0.500027 19.6666 0.538323 19.7926 0.61004 19.8999C0.681757 20.0071 0.78367 20.0906 0.902883 20.1399C1.0221 20.1892 1.15325 20.202 1.27974 20.1767C1.40623 20.1514 1.52237 20.0891 1.61347 19.9978L5.3333 16.278C5.57776 16.0335 5.90934 15.896 6.25511 15.896H18.7536C19.4452 15.896 20.1085 15.6212 20.5975 15.1322C21.0866 14.6432 21.3613 13.9799 21.3613 13.2883V2.85766C21.3613 2.16607 21.0866 1.5028 20.5975 1.01377C20.1085 0.524735 19.4452 0.25 18.7536 0.25L3.10766 0.25Z" fill="white"/>
</svg>
