<svg width="22" height="24" viewBox="0 0 22 24" fill="none" xmlns="http://www.w3.org/2000/svg">
<path d="M3.79995 9.59999C3.7993 8.10402 4.26463 6.64499 5.13129 5.42564C5.99796 4.20628 7.22291 3.28716 8.63595 2.79599C8.58123 2.45316 8.60154 2.10254 8.69547 1.76832C8.78941 1.4341 8.95473 1.12424 9.18004 0.86012C9.40535 0.595996 9.68528 0.383898 10.0005 0.238458C10.3157 0.0930183 10.6588 0.0177002 11.006 0.0177002C11.3531 0.0177002 11.6962 0.0930183 12.0114 0.238458C12.3266 0.383898 12.6066 0.595996 12.8319 0.86012C13.0572 1.12424 13.2225 1.4341 13.3164 1.76832C13.4104 2.10254 13.4307 2.45316 13.3759 2.79599C14.7867 3.28918 16.0091 4.20916 16.8735 5.42834C17.7379 6.64752 18.2015 8.10547 18.1999 9.59999V16.8L21.7999 19.2V20.4H0.199951V19.2L3.79995 16.8V9.59999ZM13.4 21.6C13.4 22.2365 13.1471 22.847 12.697 23.297C12.2469 23.7471 11.6365 24 11 24C10.3634 24 9.75298 23.7471 9.30289 23.297C8.85281 22.847 8.59995 22.2365 8.59995 21.6H13.4Z" fill="white"/>
</svg>
